<?xml version="1.0" encoding="utf-8" standalone="no"?>
<!DOCTYPE svg PUBLIC "-//W3C//DTD SVG 1.1//EN"
  "http://www.w3.org/Graphics/SVG/1.1/DTD/svg11.dtd">
<svg xmlns:xlink="http://www.w3.org/1999/xlink" width="523.203562pt" height="309.024687pt" viewBox="0 0 523.203562 309.024687" xmlns="http://www.w3.org/2000/svg" version="1.1">
 <metadata>
  <rdf:RDF xmlns:dc="http://purl.org/dc/elements/1.1/" xmlns:cc="http://creativecommons.org/ns#" xmlns:rdf="http://www.w3.org/1999/02/22-rdf-syntax-ns#">
   <cc:Work>
    <dc:type rdf:resource="http://purl.org/dc/dcmitype/StillImage"/>
    <dc:date>2023-01-09T00:34:44.626138</dc:date>
    <dc:format>image/svg+xml</dc:format>
    <dc:creator>
     <cc:Agent>
      <dc:title>Matplotlib v3.6.2, https://matplotlib.org/</dc:title>
     </cc:Agent>
    </dc:creator>
   </cc:Work>
  </rdf:RDF>
 </metadata>
 <defs>
  <style type="text/css">*{stroke-linejoin: round; stroke-linecap: butt}</style>
 </defs>
 <g id="figure_1">
  <g id="patch_1">
   <path d="M 0 309.024687 
L 523.203562 309.024687 
L 523.203562 0 
L 0 0 
z
" style="fill: #ffffff; stroke: #ffffff; stroke-linejoin: miter"/>
  </g>
  <g id="axes_1">
   <g id="patch_2">
    <path d="M 43.992938 273.312 
L 401.112938 273.312 
L 401.112938 7.2 
L 43.992938 7.2 
z
" style="fill: #ebebeb"/>
   </g>
   <g id="matplotlib.axis_1">
    <g id="xtick_1">
     <g id="line2d_1">
      <path d="M 53.531757 273.312 
L 53.531757 7.2 
" clip-path="url(#p788b199526)" style="fill: none; stroke: #ffffff"/>
     </g>
     <g id="line2d_2">
      <path d="M 53.531757 273.312 
" style="fill: none; stroke: #000000; stroke-width: 1.5"/>
      <defs>
       <path id="mbc5a1caf21" d="M 0 0 
L 0 2.75 
" style="stroke: #333333"/>
      </defs>
      <g>
       <use xlink:href="#mbc5a1caf21" x="53.531757" y="273.312" style="stroke: #333333"/>
      </g>
     </g>
     <g id="text_1">
      <!-- 0 -->
      <g style="fill: #4d4d4d" transform="translate(50.732257 284.948625) scale(0.088 -0.088)">
       <defs>
        <path id="DejaVuSans-30" d="M 2034 4250 
Q 1547 4250 1301 3770 
Q 1056 3291 1056 2328 
Q 1056 1369 1301 889 
Q 1547 409 2034 409 
Q 2525 409 2770 889 
Q 3016 1369 3016 2328 
Q 3016 3291 2770 3770 
Q 2525 4250 2034 4250 
z
M 2034 4750 
Q 2819 4750 3233 4129 
Q 3647 3509 3647 2328 
Q 3647 1150 3233 529 
Q 2819 -91 2034 -91 
Q 1250 -91 836 529 
Q 422 1150 422 2328 
Q 422 3509 836 4129 
Q 1250 4750 2034 4750 
z
" transform="scale(0.015625)"/>
       </defs>
       <use xlink:href="#DejaVuSans-30"/>
      </g>
     </g>
    </g>
    <g id="xtick_2">
     <g id="line2d_3">
      <path d="M 137.205609 273.312 
L 137.205609 7.2 
" clip-path="url(#p788b199526)" style="fill: none; stroke: #ffffff"/>
     </g>
     <g id="line2d_4">
      <path d="M 137.205609 273.312 
" style="fill: none; stroke: #000000; stroke-width: 1.5"/>
      <g>
       <use xlink:href="#mbc5a1caf21" x="137.205609" y="273.312" style="stroke: #333333"/>
      </g>
     </g>
     <g id="text_2">
      <!-- 25 -->
      <g style="fill: #4d4d4d" transform="translate(131.606609 284.948625) scale(0.088 -0.088)">
       <defs>
        <path id="DejaVuSans-32" d="M 1228 531 
L 3431 531 
L 3431 0 
L 469 0 
L 469 531 
Q 828 903 1448 1529 
Q 2069 2156 2228 2338 
Q 2531 2678 2651 2914 
Q 2772 3150 2772 3378 
Q 2772 3750 2511 3984 
Q 2250 4219 1831 4219 
Q 1534 4219 1204 4116 
Q 875 4013 500 3803 
L 500 4441 
Q 881 4594 1212 4672 
Q 1544 4750 1819 4750 
Q 2544 4750 2975 4387 
Q 3406 4025 3406 3419 
Q 3406 3131 3298 2873 
Q 3191 2616 2906 2266 
Q 2828 2175 2409 1742 
Q 1991 1309 1228 531 
z
" transform="scale(0.015625)"/>
        <path id="DejaVuSans-35" d="M 691 4666 
L 3169 4666 
L 3169 4134 
L 1269 4134 
L 1269 2991 
Q 1406 3038 1543 3061 
Q 1681 3084 1819 3084 
Q 2600 3084 3056 2656 
Q 3513 2228 3513 1497 
Q 3513 744 3044 326 
Q 2575 -91 1722 -91 
Q 1428 -91 1123 -41 
Q 819 9 494 109 
L 494 744 
Q 775 591 1075 516 
Q 1375 441 1709 441 
Q 2250 441 2565 725 
Q 2881 1009 2881 1497 
Q 2881 1984 2565 2268 
Q 2250 2553 1709 2553 
Q 1456 2553 1204 2497 
Q 953 2441 691 2322 
L 691 4666 
z
" transform="scale(0.015625)"/>
       </defs>
       <use xlink:href="#DejaVuSans-32"/>
       <use xlink:href="#DejaVuSans-35" x="63.623047"/>
      </g>
     </g>
    </g>
    <g id="xtick_3">
     <g id="line2d_5">
      <path d="M 220.87946 273.312 
L 220.87946 7.2 
" clip-path="url(#p788b199526)" style="fill: none; stroke: #ffffff"/>
     </g>
     <g id="line2d_6">
      <path d="M 220.87946 273.312 
" style="fill: none; stroke: #000000; stroke-width: 1.5"/>
      <g>
       <use xlink:href="#mbc5a1caf21" x="220.87946" y="273.312" style="stroke: #333333"/>
      </g>
     </g>
     <g id="text_3">
      <!-- 50 -->
      <g style="fill: #4d4d4d" transform="translate(215.28046 284.948625) scale(0.088 -0.088)">
       <use xlink:href="#DejaVuSans-35"/>
       <use xlink:href="#DejaVuSans-30" x="63.623047"/>
      </g>
     </g>
    </g>
    <g id="xtick_4">
     <g id="line2d_7">
      <path d="M 304.553312 273.312 
L 304.553312 7.2 
" clip-path="url(#p788b199526)" style="fill: none; stroke: #ffffff"/>
     </g>
     <g id="line2d_8">
      <path d="M 304.553312 273.312 
" style="fill: none; stroke: #000000; stroke-width: 1.5"/>
      <g>
       <use xlink:href="#mbc5a1caf21" x="304.553312" y="273.312" style="stroke: #333333"/>
      </g>
     </g>
     <g id="text_4">
      <!-- 75 -->
      <g style="fill: #4d4d4d" transform="translate(298.954312 284.948625) scale(0.088 -0.088)">
       <defs>
        <path id="DejaVuSans-37" d="M 525 4666 
L 3525 4666 
L 3525 4397 
L 1831 0 
L 1172 0 
L 2766 4134 
L 525 4134 
L 525 4666 
z
" transform="scale(0.015625)"/>
       </defs>
       <use xlink:href="#DejaVuSans-37"/>
       <use xlink:href="#DejaVuSans-35" x="63.623047"/>
      </g>
     </g>
    </g>
    <g id="xtick_5">
     <g id="line2d_9">
      <path d="M 388.227164 273.312 
L 388.227164 7.2 
" clip-path="url(#p788b199526)" style="fill: none; stroke: #ffffff"/>
     </g>
     <g id="line2d_10">
      <path d="M 388.227164 273.312 
" style="fill: none; stroke: #000000; stroke-width: 1.5"/>
      <g>
       <use xlink:href="#mbc5a1caf21" x="388.227164" y="273.312" style="stroke: #333333"/>
      </g>
     </g>
     <g id="text_5">
      <!-- 100 -->
      <g style="fill: #4d4d4d" transform="translate(379.828664 284.948625) scale(0.088 -0.088)">
       <defs>
        <path id="DejaVuSans-31" d="M 794 531 
L 1825 531 
L 1825 4091 
L 703 3866 
L 703 4441 
L 1819 4666 
L 2450 4666 
L 2450 531 
L 3481 531 
L 3481 0 
L 794 0 
L 794 531 
z
" transform="scale(0.015625)"/>
       </defs>
       <use xlink:href="#DejaVuSans-31"/>
       <use xlink:href="#DejaVuSans-30" x="63.623047"/>
       <use xlink:href="#DejaVuSans-30" x="127.246094"/>
      </g>
     </g>
    </g>
    <g id="xtick_6">
     <g id="line2d_11">
      <path d="M 95.368683 273.312 
L 95.368683 7.2 
" clip-path="url(#p788b199526)" style="fill: none; stroke: #ffffff; stroke-width: 0.5"/>
     </g>
    </g>
    <g id="xtick_7">
     <g id="line2d_12">
      <path d="M 179.042535 273.312 
L 179.042535 7.2 
" clip-path="url(#p788b199526)" style="fill: none; stroke: #ffffff; stroke-width: 0.5"/>
     </g>
    </g>
    <g id="xtick_8">
     <g id="line2d_13">
      <path d="M 262.716386 273.312 
L 262.716386 7.2 
" clip-path="url(#p788b199526)" style="fill: none; stroke: #ffffff; stroke-width: 0.5"/>
     </g>
    </g>
    <g id="xtick_9">
     <g id="line2d_14">
      <path d="M 346.390238 273.312 
L 346.390238 7.2 
" clip-path="url(#p788b199526)" style="fill: none; stroke: #ffffff; stroke-width: 0.5"/>
     </g>
    </g>
    <g id="text_6">
     <!-- Samples -->
     <g transform="translate(193.3045 299.537031) scale(0.11 -0.11)">
      <defs>
       <path id="DejaVuSans-53" d="M 3425 4513 
L 3425 3897 
Q 3066 4069 2747 4153 
Q 2428 4238 2131 4238 
Q 1616 4238 1336 4038 
Q 1056 3838 1056 3469 
Q 1056 3159 1242 3001 
Q 1428 2844 1947 2747 
L 2328 2669 
Q 3034 2534 3370 2195 
Q 3706 1856 3706 1288 
Q 3706 609 3251 259 
Q 2797 -91 1919 -91 
Q 1588 -91 1214 -16 
Q 841 59 441 206 
L 441 856 
Q 825 641 1194 531 
Q 1563 422 1919 422 
Q 2459 422 2753 634 
Q 3047 847 3047 1241 
Q 3047 1584 2836 1778 
Q 2625 1972 2144 2069 
L 1759 2144 
Q 1053 2284 737 2584 
Q 422 2884 422 3419 
Q 422 4038 858 4394 
Q 1294 4750 2059 4750 
Q 2388 4750 2728 4690 
Q 3069 4631 3425 4513 
z
" transform="scale(0.015625)"/>
       <path id="DejaVuSans-61" d="M 2194 1759 
Q 1497 1759 1228 1600 
Q 959 1441 959 1056 
Q 959 750 1161 570 
Q 1363 391 1709 391 
Q 2188 391 2477 730 
Q 2766 1069 2766 1631 
L 2766 1759 
L 2194 1759 
z
M 3341 1997 
L 3341 0 
L 2766 0 
L 2766 531 
Q 2569 213 2275 61 
Q 1981 -91 1556 -91 
Q 1019 -91 701 211 
Q 384 513 384 1019 
Q 384 1609 779 1909 
Q 1175 2209 1959 2209 
L 2766 2209 
L 2766 2266 
Q 2766 2663 2505 2880 
Q 2244 3097 1772 3097 
Q 1472 3097 1187 3025 
Q 903 2953 641 2809 
L 641 3341 
Q 956 3463 1253 3523 
Q 1550 3584 1831 3584 
Q 2591 3584 2966 3190 
Q 3341 2797 3341 1997 
z
" transform="scale(0.015625)"/>
       <path id="DejaVuSans-6d" d="M 3328 2828 
Q 3544 3216 3844 3400 
Q 4144 3584 4550 3584 
Q 5097 3584 5394 3201 
Q 5691 2819 5691 2113 
L 5691 0 
L 5113 0 
L 5113 2094 
Q 5113 2597 4934 2840 
Q 4756 3084 4391 3084 
Q 3944 3084 3684 2787 
Q 3425 2491 3425 1978 
L 3425 0 
L 2847 0 
L 2847 2094 
Q 2847 2600 2669 2842 
Q 2491 3084 2119 3084 
Q 1678 3084 1418 2786 
Q 1159 2488 1159 1978 
L 1159 0 
L 581 0 
L 581 3500 
L 1159 3500 
L 1159 2956 
Q 1356 3278 1631 3431 
Q 1906 3584 2284 3584 
Q 2666 3584 2933 3390 
Q 3200 3197 3328 2828 
z
" transform="scale(0.015625)"/>
       <path id="DejaVuSans-70" d="M 1159 525 
L 1159 -1331 
L 581 -1331 
L 581 3500 
L 1159 3500 
L 1159 2969 
Q 1341 3281 1617 3432 
Q 1894 3584 2278 3584 
Q 2916 3584 3314 3078 
Q 3713 2572 3713 1747 
Q 3713 922 3314 415 
Q 2916 -91 2278 -91 
Q 1894 -91 1617 61 
Q 1341 213 1159 525 
z
M 3116 1747 
Q 3116 2381 2855 2742 
Q 2594 3103 2138 3103 
Q 1681 3103 1420 2742 
Q 1159 2381 1159 1747 
Q 1159 1113 1420 752 
Q 1681 391 2138 391 
Q 2594 391 2855 752 
Q 3116 1113 3116 1747 
z
" transform="scale(0.015625)"/>
       <path id="DejaVuSans-6c" d="M 603 4863 
L 1178 4863 
L 1178 0 
L 603 0 
L 603 4863 
z
" transform="scale(0.015625)"/>
       <path id="DejaVuSans-65" d="M 3597 1894 
L 3597 1613 
L 953 1613 
Q 991 1019 1311 708 
Q 1631 397 2203 397 
Q 2534 397 2845 478 
Q 3156 559 3463 722 
L 3463 178 
Q 3153 47 2828 -22 
Q 2503 -91 2169 -91 
Q 1331 -91 842 396 
Q 353 884 353 1716 
Q 353 2575 817 3079 
Q 1281 3584 2069 3584 
Q 2775 3584 3186 3129 
Q 3597 2675 3597 1894 
z
M 3022 2063 
Q 3016 2534 2758 2815 
Q 2500 3097 2075 3097 
Q 1594 3097 1305 2825 
Q 1016 2553 972 2059 
L 3022 2063 
z
" transform="scale(0.015625)"/>
       <path id="DejaVuSans-73" d="M 2834 3397 
L 2834 2853 
Q 2591 2978 2328 3040 
Q 2066 3103 1784 3103 
Q 1356 3103 1142 2972 
Q 928 2841 928 2578 
Q 928 2378 1081 2264 
Q 1234 2150 1697 2047 
L 1894 2003 
Q 2506 1872 2764 1633 
Q 3022 1394 3022 966 
Q 3022 478 2636 193 
Q 2250 -91 1575 -91 
Q 1294 -91 989 -36 
Q 684 19 347 128 
L 347 722 
Q 666 556 975 473 
Q 1284 391 1588 391 
Q 1994 391 2212 530 
Q 2431 669 2431 922 
Q 2431 1156 2273 1281 
Q 2116 1406 1581 1522 
L 1381 1569 
Q 847 1681 609 1914 
Q 372 2147 372 2553 
Q 372 3047 722 3315 
Q 1072 3584 1716 3584 
Q 2034 3584 2315 3537 
Q 2597 3491 2834 3397 
z
" transform="scale(0.015625)"/>
      </defs>
      <use xlink:href="#DejaVuSans-53"/>
      <use xlink:href="#DejaVuSans-61" x="63.476562"/>
      <use xlink:href="#DejaVuSans-6d" x="124.755859"/>
      <use xlink:href="#DejaVuSans-70" x="222.167969"/>
      <use xlink:href="#DejaVuSans-6c" x="285.644531"/>
      <use xlink:href="#DejaVuSans-65" x="313.427734"/>
      <use xlink:href="#DejaVuSans-73" x="374.951172"/>
     </g>
    </g>
   </g>
   <g id="matplotlib.axis_2">
    <g id="ytick_1">
     <g id="line2d_15">
      <path d="M 43.992938 234.105571 
L 401.112938 234.105571 
" clip-path="url(#p788b199526)" style="fill: none; stroke: #ffffff"/>
     </g>
     <g id="line2d_16">
      <path d="M 43.992938 234.105571 
" style="fill: none; stroke: #000000; stroke-width: 1.5"/>
      <defs>
       <path id="m47ecfd0483" d="M 0 0 
L -2.75 0 
" style="stroke: #333333"/>
      </defs>
      <g>
       <use xlink:href="#m47ecfd0483" x="43.992938" y="234.105571" style="stroke: #333333"/>
      </g>
     </g>
     <g id="text_7">
      <!-- 1 -->
      <g style="fill: #4d4d4d" transform="translate(33.443938 236.533821) scale(0.088 -0.088)">
       <use xlink:href="#DejaVuSans-31"/>
      </g>
     </g>
    </g>
    <g id="ytick_2">
     <g id="line2d_17">
      <path d="M 43.992938 153.413389 
L 401.112938 153.413389 
" clip-path="url(#p788b199526)" style="fill: none; stroke: #ffffff"/>
     </g>
     <g id="line2d_18">
      <path d="M 43.992938 153.413389 
" style="fill: none; stroke: #000000; stroke-width: 1.5"/>
      <g>
       <use xlink:href="#m47ecfd0483" x="43.992938" y="153.413389" style="stroke: #333333"/>
      </g>
     </g>
     <g id="text_8">
      <!-- 10 -->
      <g style="fill: #4d4d4d" transform="translate(27.844938 155.841639) scale(0.088 -0.088)">
       <use xlink:href="#DejaVuSans-31"/>
       <use xlink:href="#DejaVuSans-30" x="63.623047"/>
      </g>
     </g>
    </g>
    <g id="ytick_3">
     <g id="line2d_19">
      <path d="M 43.992938 72.721206 
L 401.112938 72.721206 
" clip-path="url(#p788b199526)" style="fill: none; stroke: #ffffff"/>
     </g>
     <g id="line2d_20">
      <path d="M 43.992938 72.721206 
" style="fill: none; stroke: #000000; stroke-width: 1.5"/>
      <g>
       <use xlink:href="#m47ecfd0483" x="43.992938" y="72.721206" style="stroke: #333333"/>
      </g>
     </g>
     <g id="text_9">
      <!-- 100 -->
      <g style="fill: #4d4d4d" transform="translate(22.245938 75.149456) scale(0.088 -0.088)">
       <use xlink:href="#DejaVuSans-31"/>
       <use xlink:href="#DejaVuSans-30" x="63.623047"/>
       <use xlink:href="#DejaVuSans-30" x="127.246094"/>
      </g>
     </g>
    </g>
    <g id="ytick_4">
     <g id="line2d_21">
      <path d="M 43.992938 266.216219 
L 401.112938 266.216219 
" clip-path="url(#p788b199526)" style="fill: none; stroke: #ffffff; stroke-width: 0.5"/>
     </g>
    </g>
    <g id="ytick_5">
     <g id="line2d_22">
      <path d="M 43.992938 258.396339 
L 401.112938 258.396339 
" clip-path="url(#p788b199526)" style="fill: none; stroke: #ffffff; stroke-width: 0.5"/>
     </g>
    </g>
    <g id="ytick_6">
     <g id="line2d_23">
      <path d="M 43.992938 252.007031 
L 401.112938 252.007031 
" clip-path="url(#p788b199526)" style="fill: none; stroke: #ffffff; stroke-width: 0.5"/>
     </g>
    </g>
    <g id="ytick_7">
     <g id="line2d_24">
      <path d="M 43.992938 246.604948 
L 401.112938 246.604948 
" clip-path="url(#p788b199526)" style="fill: none; stroke: #ffffff; stroke-width: 0.5"/>
     </g>
    </g>
    <g id="ytick_8">
     <g id="line2d_25">
      <path d="M 43.992938 241.925452 
L 401.112938 241.925452 
" clip-path="url(#p788b199526)" style="fill: none; stroke: #ffffff; stroke-width: 0.5"/>
     </g>
    </g>
    <g id="ytick_9">
     <g id="line2d_26">
      <path d="M 43.992938 237.797843 
L 401.112938 237.797843 
" clip-path="url(#p788b199526)" style="fill: none; stroke: #ffffff; stroke-width: 0.5"/>
     </g>
    </g>
    <g id="ytick_10">
     <g id="line2d_27">
      <path d="M 43.992938 209.814804 
L 401.112938 209.814804 
" clip-path="url(#p788b199526)" style="fill: none; stroke: #ffffff; stroke-width: 0.5"/>
     </g>
    </g>
    <g id="ytick_11">
     <g id="line2d_28">
      <path d="M 43.992938 195.605616 
L 401.112938 195.605616 
" clip-path="url(#p788b199526)" style="fill: none; stroke: #ffffff; stroke-width: 0.5"/>
     </g>
    </g>
    <g id="ytick_12">
     <g id="line2d_29">
      <path d="M 43.992938 185.524037 
L 401.112938 185.524037 
" clip-path="url(#p788b199526)" style="fill: none; stroke: #ffffff; stroke-width: 0.5"/>
     </g>
    </g>
    <g id="ytick_13">
     <g id="line2d_30">
      <path d="M 43.992938 177.704156 
L 401.112938 177.704156 
" clip-path="url(#p788b199526)" style="fill: none; stroke: #ffffff; stroke-width: 0.5"/>
     </g>
    </g>
    <g id="ytick_14">
     <g id="line2d_31">
      <path d="M 43.992938 171.314849 
L 401.112938 171.314849 
" clip-path="url(#p788b199526)" style="fill: none; stroke: #ffffff; stroke-width: 0.5"/>
     </g>
    </g>
    <g id="ytick_15">
     <g id="line2d_32">
      <path d="M 43.992938 165.912766 
L 401.112938 165.912766 
" clip-path="url(#p788b199526)" style="fill: none; stroke: #ffffff; stroke-width: 0.5"/>
     </g>
    </g>
    <g id="ytick_16">
     <g id="line2d_33">
      <path d="M 43.992938 161.233269 
L 401.112938 161.233269 
" clip-path="url(#p788b199526)" style="fill: none; stroke: #ffffff; stroke-width: 0.5"/>
     </g>
    </g>
    <g id="ytick_17">
     <g id="line2d_34">
      <path d="M 43.992938 157.105661 
L 401.112938 157.105661 
" clip-path="url(#p788b199526)" style="fill: none; stroke: #ffffff; stroke-width: 0.5"/>
     </g>
    </g>
    <g id="ytick_18">
     <g id="line2d_35">
      <path d="M 43.992938 129.122621 
L 401.112938 129.122621 
" clip-path="url(#p788b199526)" style="fill: none; stroke: #ffffff; stroke-width: 0.5"/>
     </g>
    </g>
    <g id="ytick_19">
     <g id="line2d_36">
      <path d="M 43.992938 114.913433 
L 401.112938 114.913433 
" clip-path="url(#p788b199526)" style="fill: none; stroke: #ffffff; stroke-width: 0.5"/>
     </g>
    </g>
    <g id="ytick_20">
     <g id="line2d_37">
      <path d="M 43.992938 104.831854 
L 401.112938 104.831854 
" clip-path="url(#p788b199526)" style="fill: none; stroke: #ffffff; stroke-width: 0.5"/>
     </g>
    </g>
    <g id="ytick_21">
     <g id="line2d_38">
      <path d="M 43.992938 97.011974 
L 401.112938 97.011974 
" clip-path="url(#p788b199526)" style="fill: none; stroke: #ffffff; stroke-width: 0.5"/>
     </g>
    </g>
    <g id="ytick_22">
     <g id="line2d_39">
      <path d="M 43.992938 90.622666 
L 401.112938 90.622666 
" clip-path="url(#p788b199526)" style="fill: none; stroke: #ffffff; stroke-width: 0.5"/>
     </g>
    </g>
    <g id="ytick_23">
     <g id="line2d_40">
      <path d="M 43.992938 85.220584 
L 401.112938 85.220584 
" clip-path="url(#p788b199526)" style="fill: none; stroke: #ffffff; stroke-width: 0.5"/>
     </g>
    </g>
    <g id="ytick_24">
     <g id="line2d_41">
      <path d="M 43.992938 80.541087 
L 401.112938 80.541087 
" clip-path="url(#p788b199526)" style="fill: none; stroke: #ffffff; stroke-width: 0.5"/>
     </g>
    </g>
    <g id="ytick_25">
     <g id="line2d_42">
      <path d="M 43.992938 76.413478 
L 401.112938 76.413478 
" clip-path="url(#p788b199526)" style="fill: none; stroke: #ffffff; stroke-width: 0.5"/>
     </g>
    </g>
    <g id="ytick_26">
     <g id="line2d_43">
      <path d="M 43.992938 48.430439 
L 401.112938 48.430439 
" clip-path="url(#p788b199526)" style="fill: none; stroke: #ffffff; stroke-width: 0.5"/>
     </g>
    </g>
    <g id="ytick_27">
     <g id="line2d_44">
      <path d="M 43.992938 34.221251 
L 401.112938 34.221251 
" clip-path="url(#p788b199526)" style="fill: none; stroke: #ffffff; stroke-width: 0.5"/>
     </g>
    </g>
    <g id="ytick_28">
     <g id="line2d_45">
      <path d="M 43.992938 24.139672 
L 401.112938 24.139672 
" clip-path="url(#p788b199526)" style="fill: none; stroke: #ffffff; stroke-width: 0.5"/>
     </g>
    </g>
    <g id="ytick_29">
     <g id="line2d_46">
      <path d="M 43.992938 16.319791 
L 401.112938 16.319791 
" clip-path="url(#p788b199526)" style="fill: none; stroke: #ffffff; stroke-width: 0.5"/>
     </g>
    </g>
    <g id="ytick_30">
     <g id="line2d_47">
      <path d="M 43.992938 9.930484 
L 401.112938 9.930484 
" clip-path="url(#p788b199526)" style="fill: none; stroke: #ffffff; stroke-width: 0.5"/>
     </g>
    </g>
    <g id="text_10">
     <!-- MSE (nats²) -->
     <g transform="translate(15.558281 170.362687) rotate(-90) scale(0.11 -0.11)">
      <defs>
       <path id="DejaVuSans-4d" d="M 628 4666 
L 1569 4666 
L 2759 1491 
L 3956 4666 
L 4897 4666 
L 4897 0 
L 4281 0 
L 4281 4097 
L 3078 897 
L 2444 897 
L 1241 4097 
L 1241 0 
L 628 0 
L 628 4666 
z
" transform="scale(0.015625)"/>
       <path id="DejaVuSans-45" d="M 628 4666 
L 3578 4666 
L 3578 4134 
L 1259 4134 
L 1259 2753 
L 3481 2753 
L 3481 2222 
L 1259 2222 
L 1259 531 
L 3634 531 
L 3634 0 
L 628 0 
L 628 4666 
z
" transform="scale(0.015625)"/>
       <path id="DejaVuSans-20" transform="scale(0.015625)"/>
       <path id="DejaVuSans-28" d="M 1984 4856 
Q 1566 4138 1362 3434 
Q 1159 2731 1159 2009 
Q 1159 1288 1364 580 
Q 1569 -128 1984 -844 
L 1484 -844 
Q 1016 -109 783 600 
Q 550 1309 550 2009 
Q 550 2706 781 3412 
Q 1013 4119 1484 4856 
L 1984 4856 
z
" transform="scale(0.015625)"/>
       <path id="DejaVuSans-6e" d="M 3513 2113 
L 3513 0 
L 2938 0 
L 2938 2094 
Q 2938 2591 2744 2837 
Q 2550 3084 2163 3084 
Q 1697 3084 1428 2787 
Q 1159 2491 1159 1978 
L 1159 0 
L 581 0 
L 581 3500 
L 1159 3500 
L 1159 2956 
Q 1366 3272 1645 3428 
Q 1925 3584 2291 3584 
Q 2894 3584 3203 3211 
Q 3513 2838 3513 2113 
z
" transform="scale(0.015625)"/>
       <path id="DejaVuSans-74" d="M 1172 4494 
L 1172 3500 
L 2356 3500 
L 2356 3053 
L 1172 3053 
L 1172 1153 
Q 1172 725 1289 603 
Q 1406 481 1766 481 
L 2356 481 
L 2356 0 
L 1766 0 
Q 1100 0 847 248 
Q 594 497 594 1153 
L 594 3053 
L 172 3053 
L 172 3500 
L 594 3500 
L 594 4494 
L 1172 4494 
z
" transform="scale(0.015625)"/>
       <path id="DejaVuSans-b2" d="M 838 2444 
L 2163 2444 
L 2163 2088 
L 294 2088 
L 294 2431 
Q 400 2528 597 2703 
Q 1672 3656 1672 3950 
Q 1672 4156 1509 4282 
Q 1347 4409 1081 4409 
Q 919 4409 728 4354 
Q 538 4300 313 4191 
L 313 4575 
Q 553 4663 761 4706 
Q 969 4750 1147 4750 
Q 1600 4750 1872 4544 
Q 2144 4338 2144 4000 
Q 2144 3566 1109 2678 
Q 934 2528 838 2444 
z
" transform="scale(0.015625)"/>
       <path id="DejaVuSans-29" d="M 513 4856 
L 1013 4856 
Q 1481 4119 1714 3412 
Q 1947 2706 1947 2009 
Q 1947 1309 1714 600 
Q 1481 -109 1013 -844 
L 513 -844 
Q 928 -128 1133 580 
Q 1338 1288 1338 2009 
Q 1338 2731 1133 3434 
Q 928 4138 513 4856 
z
" transform="scale(0.015625)"/>
      </defs>
      <use xlink:href="#DejaVuSans-4d"/>
      <use xlink:href="#DejaVuSans-53" x="86.279297"/>
      <use xlink:href="#DejaVuSans-45" x="149.755859"/>
      <use xlink:href="#DejaVuSans-20" x="212.939453"/>
      <use xlink:href="#DejaVuSans-28" x="244.726562"/>
      <use xlink:href="#DejaVuSans-6e" x="283.740234"/>
      <use xlink:href="#DejaVuSans-61" x="347.119141"/>
      <use xlink:href="#DejaVuSans-74" x="408.398438"/>
      <use xlink:href="#DejaVuSans-73" x="447.607422"/>
      <use xlink:href="#DejaVuSans-b2" x="499.707031"/>
      <use xlink:href="#DejaVuSans-29" x="539.794922"/>
     </g>
    </g>
   </g>
   <g id="line2d_48">
    <path d="M 60.225665 65.175071 
L 63.572619 75.037262 
L 66.919573 84.066845 
L 70.266527 99.059914 
L 73.613481 104.356659 
L 76.960435 113.126486 
L 80.307389 111.526945 
L 83.654343 124.583295 
L 87.001297 132.224795 
L 90.348251 133.194021 
L 93.695206 135.736926 
L 97.04216 140.753735 
L 100.389114 148.3482 
L 103.736068 152.921595 
L 107.083022 145.254495 
L 110.429976 146.868678 
L 113.77693 157.347569 
L 117.123884 158.230551 
L 120.470838 159.419664 
L 123.817792 153.48202 
L 127.164746 163.332467 
L 130.5117 161.285635 
L 133.858654 167.028315 
L 137.205609 166.635055 
L 140.552563 170.210447 
L 143.899517 169.255831 
L 147.246471 170.659563 
L 150.593425 172.568187 
L 153.940379 180.307082 
L 157.287333 173.593454 
L 160.634287 180.983507 
L 163.981241 186.175841 
L 167.328195 196.016085 
L 170.675149 187.47499 
L 174.022103 187.136191 
L 177.369057 190.653593 
L 180.716012 187.18171 
L 184.062966 187.429637 
L 187.40992 188.062941 
L 190.756874 185.634218 
L 194.103828 191.633914 
L 197.450782 193.473222 
L 200.797736 199.686865 
L 204.14469 195.438096 
L 207.491644 192.795366 
L 210.838598 197.96412 
L 214.185552 198.537825 
L 217.532506 199.988955 
L 220.87946 196.285995 
L 224.226415 199.274994 
L 227.573369 206.041799 
L 230.920323 202.802974 
L 234.267277 211.553999 
L 237.614231 208.762209 
L 240.961185 208.232272 
L 244.308139 212.790488 
L 247.655093 212.476419 
L 251.002047 211.545472 
L 254.349001 210.244295 
L 257.695955 205.309244 
L 261.042909 209.319457 
L 264.389863 213.769627 
L 267.736818 213.177941 
L 271.083772 213.354709 
L 274.430726 219.430985 
L 277.77768 217.965676 
L 281.124634 218.82605 
L 284.471588 221.004745 
L 287.818542 219.371423 
L 291.165496 224.553267 
L 294.51245 222.326057 
L 297.859404 218.38049 
L 301.206358 216.400121 
L 304.553312 210.392079 
L 307.900266 216.11907 
L 311.247221 225.07924 
L 314.594175 228.024839 
L 317.941129 228.999829 
L 321.288083 227.16099 
L 324.635037 225.29602 
L 327.981991 220.860317 
L 331.328945 218.986867 
L 334.675899 219.98153 
L 338.022853 221.20563 
L 341.369807 216.373438 
L 344.716761 219.243677 
L 348.063715 217.705238 
L 351.410669 217.678369 
L 354.757624 217.973462 
L 358.104578 220.342504 
L 361.451532 222.28676 
L 364.798486 217.955233 
L 368.14544 220.309995 
L 371.492394 224.467301 
L 374.839348 225.799419 
L 378.186302 234.582052 
L 381.533256 232.712399 
L 384.88021 231.768811 
" clip-path="url(#p788b199526)" style="fill: none; stroke: #db5f57; stroke-width: 0.886227"/>
   </g>
   <g id="line2d_49">
    <path d="M 60.225665 76.491643 
L 63.572619 91.93225 
L 66.919573 102.606399 
L 70.266527 104.906669 
L 73.613481 109.428601 
L 76.960435 124.197753 
L 80.307389 134.390194 
L 83.654343 129.996551 
L 87.001297 136.525568 
L 90.348251 152.990772 
L 93.695206 157.382931 
L 97.04216 154.564487 
L 100.389114 148.888706 
L 103.736068 160.973049 
L 107.083022 163.182643 
L 110.429976 158.910118 
L 113.77693 158.105712 
L 117.123884 159.960843 
L 120.470838 163.839493 
L 123.817792 167.225316 
L 127.164746 176.66797 
L 130.5117 172.584792 
L 133.858654 179.25074 
L 137.205609 181.175389 
L 140.552563 185.014514 
L 143.899517 179.501901 
L 147.246471 177.973769 
L 150.593425 183.198103 
L 153.940379 184.28032 
L 157.287333 179.779787 
L 160.634287 181.468606 
L 163.981241 189.826566 
L 167.328195 186.809504 
L 170.675149 193.408333 
L 174.022103 197.733609 
L 177.369057 211.184106 
L 180.716012 210.74628 
L 184.062966 206.884582 
L 187.40992 210.599663 
L 190.756874 209.664158 
L 194.103828 208.249587 
L 197.450782 205.419884 
L 200.797736 202.268799 
L 204.14469 200.772615 
L 207.491644 200.888603 
L 210.838598 205.55012 
L 214.185552 205.394488 
L 217.532506 204.6132 
L 220.87946 204.673169 
L 224.226415 202.041454 
L 227.573369 199.225817 
L 230.920323 195.064121 
L 234.267277 204.996554 
L 237.614231 211.148947 
L 240.961185 205.228866 
L 244.308139 204.916171 
L 247.655093 207.499205 
L 251.002047 207.327756 
L 254.349001 205.070533 
L 257.695955 206.73002 
L 261.042909 213.05485 
L 264.389863 211.045844 
L 267.736818 208.979653 
L 271.083772 211.001305 
L 274.430726 212.293855 
L 277.77768 212.995844 
L 281.124634 212.118934 
L 284.471588 215.274512 
L 287.818542 215.76609 
L 291.165496 215.708534 
L 294.51245 221.639976 
L 297.859404 219.380099 
L 301.206358 222.567559 
L 304.553312 221.741435 
L 307.900266 224.15387 
L 311.247221 229.77872 
L 314.594175 223.51372 
L 317.941129 223.090597 
L 321.288083 230.022787 
L 324.635037 223.515877 
L 327.981991 224.456262 
L 331.328945 228.925051 
L 334.675899 227.931494 
L 338.022853 226.176037 
L 341.369807 227.404519 
L 344.716761 237.988932 
L 348.063715 231.916229 
L 351.410669 223.517426 
L 354.757624 223.077563 
L 358.104578 226.213616 
L 361.451532 227.072016 
L 364.798486 230.31803 
L 368.14544 226.655575 
L 371.492394 230.21524 
L 374.839348 228.950411 
L 378.186302 228.674707 
L 381.533256 238.016465 
L 384.88021 232.558449 
" clip-path="url(#p788b199526)" style="fill: none; stroke: #91db57; stroke-width: 0.886227"/>
   </g>
   <g id="line2d_50">
    <path d="M 60.225665 25.14741 
L 63.572619 26.664256 
L 66.919573 27.717464 
L 70.266527 28.552192 
L 73.613481 29.225569 
L 76.960435 29.809434 
L 80.307389 30.283694 
L 83.654343 30.709169 
L 87.001297 31.039357 
L 90.348251 31.401687 
L 93.695206 31.727208 
L 97.04216 32.068995 
L 100.389114 32.343009 
L 103.736068 32.581895 
L 107.083022 32.81986 
L 110.429976 33.042799 
L 113.77693 33.217365 
L 117.123884 33.427421 
L 120.470838 33.626343 
L 123.817792 33.806023 
L 127.164746 33.962575 
L 130.5117 34.111682 
L 133.858654 34.245194 
L 137.205609 34.413808 
L 140.552563 34.54864 
L 143.899517 34.700062 
L 147.246471 34.851597 
L 150.593425 34.990206 
L 153.940379 35.107136 
L 157.287333 35.225217 
L 160.634287 35.34339 
L 163.981241 35.472012 
L 167.328195 35.583133 
L 170.675149 35.679008 
L 174.022103 35.763686 
L 177.369057 35.878287 
L 180.716012 35.994067 
L 184.062966 36.080472 
L 187.40992 36.192214 
L 190.756874 36.273224 
L 194.103828 36.360823 
L 197.450782 36.46475 
L 200.797736 36.561001 
L 204.14469 36.641533 
L 207.491644 36.744034 
L 210.838598 36.833301 
L 214.185552 36.891208 
L 217.532506 36.971901 
L 220.87946 37.025628 
L 224.226415 37.116542 
L 227.573369 37.18063 
L 230.920323 37.2587 
L 234.267277 37.320876 
L 237.614231 37.397475 
L 240.961185 37.483932 
L 244.308139 37.538055 
L 247.655093 37.597778 
L 251.002047 37.654073 
L 254.349001 37.70505 
L 257.695955 37.76306 
L 261.042909 37.836381 
L 264.389863 37.891462 
L 267.736818 37.947398 
L 271.083772 38.010295 
L 274.430726 38.081736 
L 277.77768 38.135232 
L 281.124634 38.172891 
L 284.471588 38.229615 
L 287.818542 38.276239 
L 291.165496 38.322961 
L 294.51245 38.366748 
L 297.859404 38.428674 
L 301.206358 38.479207 
L 304.553312 38.542434 
L 307.900266 38.596259 
L 311.247221 38.642594 
L 314.594175 38.701904 
L 317.941129 38.743752 
L 321.288083 38.794538 
L 324.635037 38.849338 
L 327.981991 38.899561 
L 331.328945 38.944884 
L 334.675899 38.988376 
L 338.022853 39.032939 
L 341.369807 39.079227 
L 344.716761 39.125467 
L 348.063715 39.168796 
L 351.410669 39.214531 
L 354.757624 39.249098 
L 358.104578 39.299494 
L 361.451532 39.340323 
L 364.798486 39.381192 
L 368.14544 39.427639 
L 371.492394 39.468849 
L 374.839348 39.504569 
L 378.186302 39.538021 
L 381.533256 39.58365 
L 384.88021 39.622034 
" clip-path="url(#p788b199526)" style="fill: none; stroke: #57d3db; stroke-width: 0.886227"/>
   </g>
   <g id="line2d_51">
    <path d="M 60.225665 25.14741 
L 63.572619 26.836952 
L 66.919573 28.28267 
L 70.266527 29.400859 
L 73.613481 30.510377 
L 76.960435 31.640868 
L 80.307389 32.464576 
L 83.654343 33.366556 
L 87.001297 33.860129 
L 90.348251 35.575107 
L 93.695206 36.521254 
L 97.04216 37.45045 
L 100.389114 37.954296 
L 103.736068 38.169209 
L 107.083022 39.123024 
L 110.429976 39.068833 
L 113.77693 39.254015 
L 117.123884 39.594524 
L 120.470838 39.737302 
L 123.817792 39.960235 
L 127.164746 40.916962 
L 130.5117 41.577997 
L 133.858654 42.492707 
L 137.205609 43.487523 
L 140.552563 43.855562 
L 143.899517 44.16396 
L 147.246471 44.454601 
L 150.593425 44.606195 
L 153.940379 44.503966 
L 157.287333 44.972733 
L 160.634287 45.344521 
L 163.981241 45.373452 
L 167.328195 45.411637 
L 170.675149 45.397494 
L 174.022103 45.644339 
L 177.369057 45.716642 
L 180.716012 45.833545 
L 184.062966 45.865909 
L 187.40992 46.114091 
L 190.756874 46.138539 
L 194.103828 46.323984 
L 197.450782 46.425734 
L 200.797736 46.832414 
L 204.14469 46.97564 
L 207.491644 46.975445 
L 210.838598 47.087622 
L 214.185552 46.986813 
L 217.532506 47.230702 
L 220.87946 47.236602 
L 224.226415 47.391165 
L 227.573369 47.405199 
L 230.920323 47.457088 
L 234.267277 47.549632 
L 237.614231 47.634476 
L 240.961185 47.698669 
L 244.308139 47.776732 
L 247.655093 47.861422 
L 251.002047 47.749956 
L 254.349001 47.728386 
L 257.695955 47.946879 
L 261.042909 48.01731 
L 264.389863 48.005171 
L 267.736818 48.125189 
L 271.083772 48.190223 
L 274.430726 48.271292 
L 277.77768 48.309849 
L 281.124634 48.310608 
L 284.471588 48.364566 
L 287.818542 48.285789 
L 291.165496 48.304535 
L 294.51245 48.304948 
L 297.859404 48.352815 
L 301.206358 48.353191 
L 304.553312 48.399399 
L 307.900266 48.433651 
L 311.247221 48.413412 
L 314.594175 48.465356 
L 317.941129 48.498289 
L 321.288083 48.654843 
L 324.635037 48.736334 
L 327.981991 48.790784 
L 331.328945 48.797028 
L 334.675899 48.824451 
L 338.022853 48.841303 
L 341.369807 48.844473 
L 344.716761 48.8701 
L 348.063715 48.853107 
L 351.410669 48.890295 
L 354.757624 48.903897 
L 358.104578 48.976541 
L 361.451532 48.975131 
L 364.798486 48.99958 
L 368.14544 49.042376 
L 371.492394 49.044882 
L 374.839348 49.079343 
L 378.186302 49.096833 
L 381.533256 49.123215 
L 384.88021 49.128656 
" clip-path="url(#p788b199526)" style="fill: none; stroke: #a157db; stroke-width: 0.886227"/>
   </g>
   <g id="patch_3">
    <path d="M 408.312938 192.930969 
L 516.003563 192.930969 
L 516.003563 84.125031 
L 408.312938 84.125031 
z
" style="fill: #ffffff"/>
   </g>
   <g id="text_11">
    <!-- factor(method) -->
    <g transform="translate(420.512938 107.718625) scale(0.11 -0.11)">
     <defs>
      <path id="DejaVuSans-66" d="M 2375 4863 
L 2375 4384 
L 1825 4384 
Q 1516 4384 1395 4259 
Q 1275 4134 1275 3809 
L 1275 3500 
L 2222 3500 
L 2222 3053 
L 1275 3053 
L 1275 0 
L 697 0 
L 697 3053 
L 147 3053 
L 147 3500 
L 697 3500 
L 697 3744 
Q 697 4328 969 4595 
Q 1241 4863 1831 4863 
L 2375 4863 
z
" transform="scale(0.015625)"/>
      <path id="DejaVuSans-63" d="M 3122 3366 
L 3122 2828 
Q 2878 2963 2633 3030 
Q 2388 3097 2138 3097 
Q 1578 3097 1268 2742 
Q 959 2388 959 1747 
Q 959 1106 1268 751 
Q 1578 397 2138 397 
Q 2388 397 2633 464 
Q 2878 531 3122 666 
L 3122 134 
Q 2881 22 2623 -34 
Q 2366 -91 2075 -91 
Q 1284 -91 818 406 
Q 353 903 353 1747 
Q 353 2603 823 3093 
Q 1294 3584 2113 3584 
Q 2378 3584 2631 3529 
Q 2884 3475 3122 3366 
z
" transform="scale(0.015625)"/>
      <path id="DejaVuSans-6f" d="M 1959 3097 
Q 1497 3097 1228 2736 
Q 959 2375 959 1747 
Q 959 1119 1226 758 
Q 1494 397 1959 397 
Q 2419 397 2687 759 
Q 2956 1122 2956 1747 
Q 2956 2369 2687 2733 
Q 2419 3097 1959 3097 
z
M 1959 3584 
Q 2709 3584 3137 3096 
Q 3566 2609 3566 1747 
Q 3566 888 3137 398 
Q 2709 -91 1959 -91 
Q 1206 -91 779 398 
Q 353 888 353 1747 
Q 353 2609 779 3096 
Q 1206 3584 1959 3584 
z
" transform="scale(0.015625)"/>
      <path id="DejaVuSans-72" d="M 2631 2963 
Q 2534 3019 2420 3045 
Q 2306 3072 2169 3072 
Q 1681 3072 1420 2755 
Q 1159 2438 1159 1844 
L 1159 0 
L 581 0 
L 581 3500 
L 1159 3500 
L 1159 2956 
Q 1341 3275 1631 3429 
Q 1922 3584 2338 3584 
Q 2397 3584 2469 3576 
Q 2541 3569 2628 3553 
L 2631 2963 
z
" transform="scale(0.015625)"/>
      <path id="DejaVuSans-68" d="M 3513 2113 
L 3513 0 
L 2938 0 
L 2938 2094 
Q 2938 2591 2744 2837 
Q 2550 3084 2163 3084 
Q 1697 3084 1428 2787 
Q 1159 2491 1159 1978 
L 1159 0 
L 581 0 
L 581 4863 
L 1159 4863 
L 1159 2956 
Q 1366 3272 1645 3428 
Q 1925 3584 2291 3584 
Q 2894 3584 3203 3211 
Q 3513 2838 3513 2113 
z
" transform="scale(0.015625)"/>
      <path id="DejaVuSans-64" d="M 2906 2969 
L 2906 4863 
L 3481 4863 
L 3481 0 
L 2906 0 
L 2906 525 
Q 2725 213 2448 61 
Q 2172 -91 1784 -91 
Q 1150 -91 751 415 
Q 353 922 353 1747 
Q 353 2572 751 3078 
Q 1150 3584 1784 3584 
Q 2172 3584 2448 3432 
Q 2725 3281 2906 2969 
z
M 947 1747 
Q 947 1113 1208 752 
Q 1469 391 1925 391 
Q 2381 391 2643 752 
Q 2906 1113 2906 1747 
Q 2906 2381 2643 2742 
Q 2381 3103 1925 3103 
Q 1469 3103 1208 2742 
Q 947 2381 947 1747 
z
" transform="scale(0.015625)"/>
     </defs>
     <use xlink:href="#DejaVuSans-66"/>
     <use xlink:href="#DejaVuSans-61" x="35.205078"/>
     <use xlink:href="#DejaVuSans-63" x="96.484375"/>
     <use xlink:href="#DejaVuSans-74" x="151.464844"/>
     <use xlink:href="#DejaVuSans-6f" x="190.673828"/>
     <use xlink:href="#DejaVuSans-72" x="251.855469"/>
     <use xlink:href="#DejaVuSans-28" x="292.96875"/>
     <use xlink:href="#DejaVuSans-6d" x="331.982422"/>
     <use xlink:href="#DejaVuSans-65" x="429.394531"/>
     <use xlink:href="#DejaVuSans-74" x="490.917969"/>
     <use xlink:href="#DejaVuSans-68" x="530.126953"/>
     <use xlink:href="#DejaVuSans-6f" x="593.505859"/>
     <use xlink:href="#DejaVuSans-64" x="654.6875"/>
     <use xlink:href="#DejaVuSans-29" x="718.164062"/>
    </g>
   </g>
   <g id="patch_4">
    <path d="M 420.512938 127.210969 
L 436.352937 127.210969 
L 436.352937 111.370969 
L 420.512938 111.370969 
z
" clip-path="url(#p35d3c90aa7)" style="fill: #f2f2f2"/>
   </g>
   <g id="line2d_52">
    <path d="M 420.512938 119.290969 
L 436.352937 119.290969 
" clip-path="url(#p35d3c90aa7)" style="fill: none; stroke: #db5f57; stroke-width: 0.886227"/>
   </g>
   <g id="text_12">
    <!-- sMLE -->
    <g transform="translate(439.352938 121.719219) scale(0.088 -0.088)">
     <defs>
      <path id="DejaVuSans-4c" d="M 628 4666 
L 1259 4666 
L 1259 531 
L 3531 531 
L 3531 0 
L 628 0 
L 628 4666 
z
" transform="scale(0.015625)"/>
     </defs>
     <use xlink:href="#DejaVuSans-73"/>
     <use xlink:href="#DejaVuSans-4d" x="52.099609"/>
     <use xlink:href="#DejaVuSans-4c" x="138.378906"/>
     <use xlink:href="#DejaVuSans-45" x="194.091797"/>
    </g>
   </g>
   <g id="patch_5">
    <path d="M 420.512938 145.050969 
L 436.352937 145.050969 
L 436.352937 129.210969 
L 420.512938 129.210969 
z
" clip-path="url(#p7b1aa6eea1)" style="fill: #f2f2f2"/>
   </g>
   <g id="line2d_53">
    <path d="M 420.512938 137.130969 
L 436.352937 137.130969 
" clip-path="url(#p7b1aa6eea1)" style="fill: none; stroke: #91db57; stroke-width: 0.886227"/>
   </g>
   <g id="text_13">
    <!-- sNSB -->
    <g transform="translate(439.352938 139.559219) scale(0.088 -0.088)">
     <defs>
      <path id="DejaVuSans-4e" d="M 628 4666 
L 1478 4666 
L 3547 763 
L 3547 4666 
L 4159 4666 
L 4159 0 
L 3309 0 
L 1241 3903 
L 1241 0 
L 628 0 
L 628 4666 
z
" transform="scale(0.015625)"/>
      <path id="DejaVuSans-42" d="M 1259 2228 
L 1259 519 
L 2272 519 
Q 2781 519 3026 730 
Q 3272 941 3272 1375 
Q 3272 1813 3026 2020 
Q 2781 2228 2272 2228 
L 1259 2228 
z
M 1259 4147 
L 1259 2741 
L 2194 2741 
Q 2656 2741 2882 2914 
Q 3109 3088 3109 3444 
Q 3109 3797 2882 3972 
Q 2656 4147 2194 4147 
L 1259 4147 
z
M 628 4666 
L 2241 4666 
Q 2963 4666 3353 4366 
Q 3744 4066 3744 3513 
Q 3744 3084 3544 2831 
Q 3344 2578 2956 2516 
Q 3422 2416 3680 2098 
Q 3938 1781 3938 1306 
Q 3938 681 3513 340 
Q 3088 0 2303 0 
L 628 0 
L 628 4666 
z
" transform="scale(0.015625)"/>
     </defs>
     <use xlink:href="#DejaVuSans-73"/>
     <use xlink:href="#DejaVuSans-4e" x="52.099609"/>
     <use xlink:href="#DejaVuSans-53" x="126.904297"/>
     <use xlink:href="#DejaVuSans-42" x="190.380859"/>
    </g>
   </g>
   <g id="patch_6">
    <path d="M 420.512938 162.890969 
L 436.352937 162.890969 
L 436.352937 147.050969 
L 420.512938 147.050969 
z
" clip-path="url(#p95f6f22751)" style="fill: #f2f2f2"/>
   </g>
   <g id="line2d_54">
    <path d="M 420.512938 154.970969 
L 436.352937 154.970969 
" clip-path="url(#p95f6f22751)" style="fill: none; stroke: #57d3db; stroke-width: 0.886227"/>
   </g>
   <g id="text_14">
    <!-- uMLE -->
    <g transform="translate(439.352938 157.399219) scale(0.088 -0.088)">
     <defs>
      <path id="DejaVuSans-75" d="M 544 1381 
L 544 3500 
L 1119 3500 
L 1119 1403 
Q 1119 906 1312 657 
Q 1506 409 1894 409 
Q 2359 409 2629 706 
Q 2900 1003 2900 1516 
L 2900 3500 
L 3475 3500 
L 3475 0 
L 2900 0 
L 2900 538 
Q 2691 219 2414 64 
Q 2138 -91 1772 -91 
Q 1169 -91 856 284 
Q 544 659 544 1381 
z
M 1991 3584 
L 1991 3584 
z
" transform="scale(0.015625)"/>
     </defs>
     <use xlink:href="#DejaVuSans-75"/>
     <use xlink:href="#DejaVuSans-4d" x="63.378906"/>
     <use xlink:href="#DejaVuSans-4c" x="149.658203"/>
     <use xlink:href="#DejaVuSans-45" x="205.371094"/>
    </g>
   </g>
   <g id="patch_7">
    <path d="M 420.512938 180.730969 
L 436.352937 180.730969 
L 436.352937 164.890969 
L 420.512938 164.890969 
z
" clip-path="url(#p1f85a4501e)" style="fill: #f2f2f2"/>
   </g>
   <g id="line2d_55">
    <path d="M 420.512938 172.810969 
L 436.352937 172.810969 
" clip-path="url(#p1f85a4501e)" style="fill: none; stroke: #a157db; stroke-width: 0.886227"/>
   </g>
   <g id="text_15">
    <!-- uNSB -->
    <g transform="translate(439.352938 175.239219) scale(0.088 -0.088)">
     <use xlink:href="#DejaVuSans-75"/>
     <use xlink:href="#DejaVuSans-4e" x="63.378906"/>
     <use xlink:href="#DejaVuSans-53" x="138.183594"/>
     <use xlink:href="#DejaVuSans-42" x="201.660156"/>
    </g>
   </g>
  </g>
 </g>
 <defs>
  <clipPath id="p788b199526">
   <rect x="43.992938" y="7.2" width="357.12" height="266.112"/>
  </clipPath>
  <clipPath id="p35d3c90aa7">
   <path d="M 420.512938 127.210969 
L 420.512938 111.370969 
L 436.352937 111.370969 
L 436.352937 127.210969 
"/>
  </clipPath>
  <clipPath id="p7b1aa6eea1">
   <path d="M 420.512938 145.050969 
L 420.512938 129.210969 
L 436.352937 129.210969 
L 436.352937 145.050969 
"/>
  </clipPath>
  <clipPath id="p95f6f22751">
   <path d="M 420.512938 162.890969 
L 420.512938 147.050969 
L 436.352937 147.050969 
L 436.352937 162.890969 
"/>
  </clipPath>
  <clipPath id="p1f85a4501e">
   <path d="M 420.512938 180.730969 
L 420.512938 164.890969 
L 436.352937 164.890969 
L 436.352937 180.730969 
"/>
  </clipPath>
 </defs>
</svg>
